<svg width="48" height="48" viewBox="0 0 48 48" fill="none" xmlns="http://www.w3.org/2000/svg">
<g clip-path="url(#clip0_308_217)">
<path d="M10.975 41.5613C16.553 41.5613 21.1559 37.3988 21.8548 32.0112H26.145C26.8441 37.399 31.4468 41.5613 37.025 41.5613C43.0864 41.5613 48 36.6476 48 30.5862C48 24.7058 43.3749 19.9061 37.5642 19.6248V19.6112H26.8946C27.5115 17.0054 29.8562 15.0602 32.6483 15.0602H36.8896V10.4388H32.6483C27.3012 10.4388 22.8751 14.4438 22.2044 19.611H10.4358V19.6246C4.62511 19.9059 0 24.7058 0 30.5862C0 36.6476 4.91364 41.5613 10.975 41.5613ZM40.1329 25.2122C41.248 25.2122 42.1516 26.1163 42.1516 27.2311C42.1516 28.3461 41.248 29.2502 40.1329 29.2502C39.0179 29.2502 38.1143 28.3461 38.1143 27.2311C38.1143 26.1165 39.0179 25.2122 40.1329 25.2122ZM40.1329 30.7309C41.248 30.7309 42.1516 31.6346 42.1516 32.7498C42.1516 33.8646 41.248 34.7687 40.1329 34.7687C39.0179 34.7687 38.1143 33.8646 38.1143 32.7498C38.1143 31.6344 39.0179 30.7309 40.1329 30.7309ZM33.8804 25.2122C34.9954 25.2122 35.8991 26.1163 35.8991 27.2311C35.8991 28.3461 34.9954 29.2502 33.8804 29.2502C32.7654 29.2502 31.8617 28.3461 31.8617 27.2311C31.8617 26.1165 32.7654 25.2122 33.8804 25.2122ZM33.8804 30.7309C34.9954 30.7309 35.8991 31.6346 35.8991 32.7498C35.8991 33.8646 34.9954 34.7687 33.8804 34.7687C32.7654 34.7687 31.8617 33.8646 31.8617 32.7498C31.8617 31.6344 32.7654 30.7309 33.8804 30.7309ZM5.81504 28.5912H9.11049V25.4664H12.1028V28.5912H15.0572V31.5831H12.1026V34.7082H9.11028V31.5831H5.81504V28.5912Z" fill="#DB6414"/>
</g>
<defs>
<clipPath id="clip0_308_217">
<rect width="48" height="48" fill="white"/>
</clipPath>
</defs>
</svg>
