<svg width="41" height="40" viewBox="0 0 41 40" fill="none" xmlns="http://www.w3.org/2000/svg">
<path d="M20.4785 0.975586C15.0694 0.975586 14.3891 0.975586 12.2653 1.08941C10.6149 1.1239 8.98243 1.43176 7.43689 1.99998C6.11055 2.4954 4.90605 3.25998 3.90237 4.24356C2.89869 5.22714 2.1185 6.40752 1.61295 7.70729C1.03313 9.22189 0.718969 10.8217 0.683774 12.439C0.567627 14.5203 0.567627 15.187 0.567627 20.4878C0.567627 25.7886 0.567627 26.4553 0.683774 28.6179C0.717046 30.2354 1.03127 31.8355 1.61295 33.3496C2.11888 34.6262 2.8934 35.7841 3.88611 36.7479C4.88445 37.7379 6.09031 38.5035 7.42029 38.9918C8.96583 39.5601 10.5983 39.8679 12.2487 39.9024C14.3891 40 15.0694 40 20.4785 40C25.8876 40 26.5679 40 28.6918 39.8862C30.3423 39.8535 31.9751 39.5456 33.5202 38.9756C34.8525 38.49 36.0632 37.7304 37.0709 36.7479C38.0811 35.7696 38.8624 34.5879 39.3607 33.2845C39.9276 31.7895 40.236 30.2123 40.2733 28.6179C40.3894 26.4553 40.3894 25.7886 40.3894 20.4878C40.3894 15.187 40.3894 14.5203 40.2733 12.439C40.24 10.8215 39.9258 9.22137 39.3441 7.70729C38.8385 6.40752 38.0583 5.22714 37.0547 4.24356C36.051 3.25998 34.8465 2.4954 33.5202 1.99998C32.0013 1.43892 30.3973 1.13114 28.7747 1.08941C26.5679 0.975586 25.8876 0.975586 20.4785 0.975586ZM20.4785 4.48778C25.7881 4.48778 26.4352 4.48778 28.5258 4.6016C29.7902 4.61852 31.042 4.84957 32.2259 5.28453C33.0925 5.58813 33.876 6.08333 34.5157 6.73168C35.1773 7.35855 35.6826 8.12638 35.9924 8.97559C36.4426 10.1341 36.6786 11.362 36.6893 12.6016C36.7723 14.6666 36.8055 15.2845 36.8055 20.4878C36.8055 25.691 36.8055 26.3252 36.6727 28.374C36.6554 29.613 36.4197 30.8397 35.9758 32C35.654 32.8472 35.1439 33.6136 34.4825 34.2439C33.8428 34.8922 33.0593 35.3874 32.1928 35.691C31.011 36.1339 29.7578 36.3652 28.4927 36.374C26.3854 36.4553 25.7549 36.4878 20.4287 36.4878C15.1026 36.4878 14.4721 36.4878 12.3648 36.3577C11.1005 36.3408 9.8487 36.1097 8.66472 35.6748C7.7963 35.367 7.01253 34.8661 6.37497 34.2114C5.70828 33.5854 5.19735 32.8177 4.88165 31.9675C4.43781 30.8072 4.20204 29.5804 4.18477 28.3414C4.10181 26.2927 4.08522 25.6585 4.08522 20.4715C4.08522 15.2845 4.08522 14.6341 4.18477 12.5528C4.20204 11.3138 4.43781 10.0871 4.88165 8.92681C5.19354 8.0747 5.705 7.30615 6.37497 6.6829C7.01095 6.02635 7.79521 5.52512 8.66472 5.21949C9.84511 4.79214 11.0901 4.56132 12.3482 4.53656C14.4555 4.53656 15.086 4.439 20.3956 4.439L20.4785 4.48778ZM20.4785 10.4715C18.457 10.4715 16.4809 11.059 14.8001 12.1596C13.1193 13.2602 11.8092 14.8245 11.0356 16.6547C10.262 18.485 10.0596 20.4989 10.454 22.4419C10.8484 24.3848 11.8218 26.1695 13.2512 27.5703C14.6807 28.9711 16.5019 29.9251 18.4845 30.3116C20.4672 30.6981 22.5223 30.4997 24.3899 29.7416C26.2575 28.9835 27.8538 27.6997 28.9769 26.0525C30.1 24.4054 30.6994 22.4688 30.6994 20.4878C30.6994 17.8313 29.6226 15.2836 27.7058 13.4052C25.789 11.5268 23.1893 10.4715 20.4785 10.4715ZM20.4785 26.9918C19.1659 26.9918 17.8827 26.6104 16.7912 25.8957C15.6998 25.181 14.8491 24.1652 14.3468 22.9768C13.8444 21.7883 13.713 20.4806 13.9691 19.2189C14.2252 17.9572 14.8573 16.7983 15.7855 15.8887C16.7137 14.9791 17.8963 14.3596 19.1837 14.1087C20.4712 13.8577 21.8056 13.9865 23.0184 14.4788C24.2311 14.9711 25.2677 15.8047 25.997 16.8743C26.7262 17.9439 27.1155 19.2014 27.1155 20.4878C27.1155 22.2128 26.4162 23.8671 25.1716 25.0868C23.9269 26.3066 22.2388 26.9918 20.4785 26.9918ZM33.5036 10.0813C33.5036 10.5444 33.3634 10.9971 33.1009 11.3821C32.8384 11.7672 32.4652 12.0673 32.0286 12.2445C31.592 12.4217 31.1116 12.4681 30.6481 12.3778C30.1846 12.2874 29.7589 12.0644 29.4248 11.7369C29.0906 11.4095 28.8631 10.9923 28.7709 10.5381C28.6787 10.0839 28.726 9.61308 28.9068 9.18524C29.0877 8.75739 29.3939 8.3917 29.7868 8.13442C30.1798 7.87714 30.6417 7.73981 31.1143 7.73981C31.7466 7.74407 32.3518 7.99213 32.799 8.43032C33.2461 8.86851 33.4992 9.4616 33.5036 10.0813Z" fill="#F6F4F4"/>
</svg>
