<svg width="40" height="29" viewBox="0 0 40 29" fill="none" xmlns="http://www.w3.org/2000/svg">
<path d="M39.1688 5.12203C38.9476 4.28959 38.5057 3.52927 37.8879 2.91817C37.2702 2.30707 36.4985 1.86692 35.6512 1.64235C32.5318 0.829346 20.0875 0.829346 20.0875 0.829346C20.0875 0.829346 7.62659 0.829346 4.52381 1.64235C3.67647 1.86692 2.9048 2.30707 2.28704 2.91817C1.66928 3.52927 1.22741 4.28959 1.00622 5.12203C0.43379 8.23938 0.156073 11.4018 0.176596 14.5692C0.156073 17.7365 0.43379 20.899 1.00622 24.0163C1.21443 24.8637 1.65053 25.641 2.26915 26.2672C2.88777 26.8935 3.66632 27.3459 4.52381 27.5773C7.62659 28.3903 20.0875 28.3903 20.0875 28.3903C20.0875 28.3903 32.5484 28.3903 35.6512 27.5773C36.4985 27.3527 37.2702 26.9126 37.8879 26.3015C38.5057 25.6904 38.9476 24.9301 39.1688 24.0976C39.7463 20.9536 40.024 17.7637 39.9984 14.5692C40.0189 11.4018 39.7412 8.23938 39.1688 5.12203ZM16.0224 20.3741V8.76431L26.4258 14.5692L16.0224 20.3741Z" fill="#F6F4F4"/>
</svg>
