<svg id="Слой_1" data-name="Слой 1" xmlns="http://www.w3.org/2000/svg" viewBox="0 0 70 70"><defs><style>.cls-1{fill:#292929;}.cls-2{fill:#ff7517;stroke:#292929;stroke-miterlimit:10;stroke-width:5px;}</style></defs><title>website_icon</title><rect class="cls-1" width="70" height="70"/><path class="cls-2" d="M35.56,4.23c-8.21,0-15.77,5.18-17.93,11-.86,2.38-4.31,16.41-4.53,19.44-.65,7.77,6.26,14,6.69,14.46,8.43,7.56,22.68,6.92,30.67-.43.86-.65,6.69-6,6.48-13-.22-3.46-3-17.93-4.11-20.74C51.11,9.19,43.33,4.23,35.56,4.23Z"/><path class="cls-2" d="M34.48,30.14a11.65,11.65,0,0,0-7.78,4.1c-1.72,2.16-1.51,4.32-2.16,7.13-1.72,9.5-7.77,11-6.91,15.76,1.08,5.4,10.15,8.64,17.28,8.64,7.34,0,16.84-3.45,17.71-8.64.86-4.53-5.4-6.26-7.34-16-.65-3.23-.44-5.18-2.16-7.34C41.17,31.22,37.72,30.14,34.48,30.14Z"/></svg>