<svg width="48" height="48" viewBox="0 0 48 48" fill="none" xmlns="http://www.w3.org/2000/svg">
<g clip-path="url(#clip0_2_116)">
<path d="M10.975 39.5612C16.553 39.5612 21.1559 35.3987 21.8548 30.0111H26.145C26.8441 35.3989 31.4468 39.5612 37.025 39.5612C43.0864 39.5612 48 34.6476 48 28.5862C48 22.7057 43.3749 17.9061 37.5642 17.6247V17.6112H26.8946C27.5115 15.0053 29.8562 13.0601 32.6483 13.0601H36.8896V8.43872H32.6483C27.3012 8.43872 22.8751 12.4438 22.2044 17.6109H10.4358V17.6245C4.62511 17.9059 0 22.7057 0 28.5862C0 34.6476 4.91364 39.5612 10.975 39.5612ZM40.1329 23.2122C41.248 23.2122 42.1516 24.1162 42.1516 25.231C42.1516 26.3461 41.248 27.2501 40.1329 27.2501C39.0179 27.2501 38.1143 26.3461 38.1143 25.231C38.1143 24.1164 39.0179 23.2122 40.1329 23.2122ZM40.1329 28.7309C41.248 28.7309 42.1516 29.6345 42.1516 30.7497C42.1516 31.8645 41.248 32.7686 40.1329 32.7686C39.0179 32.7686 38.1143 31.8645 38.1143 30.7497C38.1143 29.6343 39.0179 28.7309 40.1329 28.7309ZM33.8804 23.2122C34.9954 23.2122 35.8991 24.1162 35.8991 25.231C35.8991 26.3461 34.9954 27.2501 33.8804 27.2501C32.7654 27.2501 31.8617 26.3461 31.8617 25.231C31.8617 24.1164 32.7654 23.2122 33.8804 23.2122ZM33.8804 28.7309C34.9954 28.7309 35.8991 29.6345 35.8991 30.7497C35.8991 31.8645 34.9954 32.7686 33.8804 32.7686C32.7654 32.7686 31.8617 31.8645 31.8617 30.7497C31.8617 29.6343 32.7654 28.7309 33.8804 28.7309ZM5.81504 26.5912H9.11049V23.4663H12.1028V26.5912H15.0572V29.5831H12.1026V32.7081H9.11028V29.5831H5.81504V26.5912Z" fill="black"/>
</g>
<defs>
<clipPath id="clip0_2_116">
<rect width="48" height="48" fill="white"/>
</clipPath>
</defs>
</svg>
