<svg width="40" height="39" viewBox="0 0 40 39" fill="none" xmlns="http://www.w3.org/2000/svg">
<path d="M19.8988 0C15.1739 0.00281759 10.604 1.65217 7.00587 4.65326C3.40775 7.65435 1.01594 11.8116 0.257935 16.3819C-0.500069 20.9522 0.425137 25.6378 2.86819 29.6011C5.31124 33.5644 9.11291 36.5472 13.5937 38.0163C14.6058 38.2114 14.9543 37.5935 14.9543 37.0732C14.9543 36.5528 14.9543 35.4472 14.9543 33.8211C9.41242 35.0081 8.31732 31.2033 8.31732 31.2033C7.93798 29.9891 7.11737 28.9535 6.01097 28.2927C4.21899 27.1545 6.16031 27.1545 6.16031 27.1545C6.79132 27.2434 7.39365 27.471 7.92232 27.8201C8.45098 28.1693 8.8923 28.631 9.21331 29.1707C9.4818 29.6528 9.84534 30.0778 10.2828 30.4211C10.7203 30.7643 11.223 31.019 11.7618 31.1702C12.3005 31.3215 12.8646 31.3664 13.4212 31.3023C13.9777 31.2382 14.5158 31.0663 15.0041 30.7967C15.0993 29.8113 15.5458 28.8901 16.2651 28.1951C11.8515 27.7073 7.18903 26.0325 7.18903 18.5528C7.14354 16.5906 7.8818 14.6886 9.24649 13.252C8.6183 11.5721 8.67776 9.7192 9.41242 8.0813C9.41242 8.0813 11.0883 7.64228 14.9211 10.0813C18.1806 9.21409 21.6171 9.21409 24.8765 10.0813C28.6264 7.64228 30.3023 8.0813 30.3023 8.0813C31.0214 9.72087 31.0924 11.564 30.5014 13.252C31.8381 14.6784 32.5681 16.5514 32.5422 18.4878C32.5422 25.9837 27.8798 27.6423 23.4496 28.1138C23.9363 28.581 24.3154 29.1449 24.5615 29.7674C24.8076 30.39 24.915 31.057 24.8765 31.7236C24.8765 34.3415 24.8765 36.439 24.8765 37.0732C24.8765 37.7073 25.225 38.1951 26.2371 38C30.7084 36.5213 34.4985 33.5343 36.9314 29.5717C39.3643 25.6091 40.2819 20.9285 39.5207 16.3645C38.7594 11.8005 36.3687 7.64988 32.7749 4.65267C29.1811 1.65546 24.6179 0.00656432 19.8988 0Z" fill="#F6F4F4"/>
</svg>
