<svg width="70" height="70" viewBox="0 0 70 70" fill="none" xmlns="http://www.w3.org/2000/svg">
<path d="M11.0833 21.3889C7.51853 22.6204 4.99075 25.9907 4.92594 28.9074C4.86112 30.0741 5.25001 30.2037 5.57409 32.9907C5.89816 36.1019 5.50927 36.6852 5.83335 38.1111C6.67594 41.5463 10.6296 43.2963 10.9537 43.4259C15.75 45.5 21.9074 43.037 24.3704 38.6944C24.6296 38.2407 26.3796 35.0648 25.2778 32.0185C24.6945 30.463 23.8519 30.2685 22.3611 27.6759C20.9352 25.1481 21.3241 24.6944 20.4167 23.5278C18.537 21.1944 14.5185 20.2222 11.0833 21.3889Z" fill="#FF7517" stroke="#292929" stroke-miterlimit="10"/>
<path d="M14.3889 32.3426C14.2593 32.4074 12.25 33.25 11.6019 35.2592C11.213 36.4907 11.5371 37.3981 11.7315 38.6944C12.3797 43.1018 9.91669 44.7222 10.9537 46.6018C12.1204 48.7407 16.6574 48.8704 19.7685 47.8981C23.0093 46.8611 26.6389 43.9444 26.3148 41.4815C25.9908 39.3426 23.0093 39.537 20.7408 35.5833C20.0278 34.287 19.8334 33.3148 18.6667 32.6667C17.3704 31.7592 15.75 31.7592 14.3889 32.3426Z" fill="#FF7517" stroke="#292929" stroke-miterlimit="10"/>
<path d="M9.13889 32.3426C9.56845 32.3426 9.91667 31.9944 9.91667 31.5648C9.91667 31.1353 9.56845 30.787 9.13889 30.787C8.70934 30.787 8.36111 31.1353 8.36111 31.5648C8.36111 31.9944 8.70934 32.3426 9.13889 32.3426Z" fill="#2C2727" stroke="#2C2727" stroke-miterlimit="10" stroke-linecap="round"/>
<path d="M19.3148 29.3611C19.7444 29.3611 20.0926 29.0129 20.0926 28.5833C20.0926 28.1538 19.7444 27.8055 19.3148 27.8055C18.8853 27.8055 18.537 28.1538 18.537 28.5833C18.537 29.0129 18.8853 29.3611 19.3148 29.3611Z" fill="#2C2727" stroke="#2C2727" stroke-miterlimit="10" stroke-linecap="round"/>
<path d="M15.2383 36.2208L13.7872 36.5621L14.3809 39.0858L15.832 38.7444L15.2383 36.2208Z" fill="#2C2727"/>
<path d="M18.2847 35.5059L16.8336 35.8473L17.4273 38.3709L18.8784 38.0295L18.2847 35.5059Z" fill="#2C2727"/>
<path d="M58.7222 21.5833C55.0926 20.5463 51.1389 21.9074 49.3889 24.2407C48.6759 25.2129 48.9352 25.537 47.5741 27.9352C46.0833 30.6574 45.3704 30.9166 44.8519 32.2778C43.6204 35.6481 45.8889 39.3426 46.0185 39.6018C48.8056 44.0092 55.2222 45.5648 59.6944 43.3611C60.1482 43.1018 63.4537 41.5463 64.2315 38.4352C64.6204 36.8796 64.037 36.2315 64.3611 33.1852C64.6204 30.2685 65.2037 30.1389 65.1389 28.7129C65.0093 25.7315 62.2222 22.6203 58.7222 21.5833Z" fill="#FF7517" stroke="#292929" stroke-miterlimit="10"/>
<path d="M50.6852 29.75C51.1147 29.75 51.463 29.4018 51.463 28.9722C51.463 28.5427 51.1147 28.1945 50.6852 28.1945C50.2556 28.1945 49.9074 28.5427 49.9074 28.9722C49.9074 29.4018 50.2556 29.75 50.6852 29.75Z" fill="#2C2727" stroke="#2C2727" stroke-miterlimit="10" stroke-linecap="round"/>
<path d="M60.9259 32.6018C61.3555 32.6018 61.7037 32.2536 61.7037 31.8241C61.7037 31.3945 61.3555 31.0463 60.9259 31.0463C60.4964 31.0463 60.1482 31.3945 60.1482 31.8241C60.1482 32.2536 60.4964 32.6018 60.9259 32.6018Z" fill="#2C2727" stroke="#2C2727" stroke-miterlimit="10" stroke-linecap="round"/>
<path d="M55.3519 32.3426C55.2222 32.2778 53.1482 31.7593 51.3333 32.8611C50.2315 33.5741 49.9722 34.4815 49.3241 35.6482C47.0556 39.4722 44.1389 39.213 43.75 41.3519C43.2963 43.8148 46.7963 46.6667 49.8426 47.8334C53.0185 49 57.6852 49.0648 58.9815 46.8611C60.0833 44.9815 57.5556 43.2963 58.3333 38.7593C58.5926 37.2685 58.9815 36.4259 58.5278 35.1945C58.0093 33.7685 56.713 32.7315 55.3519 32.3426Z" fill="#FF7517" stroke="#292929" stroke-miterlimit="10"/>
<path d="M53.206 35.8919L51.7649 35.5101L51.1009 38.0164L52.542 38.3982L53.206 35.8919Z" fill="#2C2727"/>
<path d="M56.2468 36.7247L54.8057 36.3429L54.1418 38.8492L55.5829 39.231L56.2468 36.7247Z" fill="#2C2727"/>
<path d="M35.1945 14.8426C31.4352 14.8426 27.9352 17.2407 26.8982 19.963C26.5093 21.0648 26.8333 21.3241 26.1852 24.0463C25.4722 27.0926 24.8889 27.5463 24.7593 28.9722C24.4352 32.537 27.6111 35.4537 27.8704 35.6481C31.7593 39.1481 38.3704 38.8241 42.0648 35.4537C42.4537 35.1296 45.1759 32.6667 45.1111 29.4259C45.0463 27.8056 44.3333 27.3518 43.75 24.3704C43.2315 21.5185 43.75 21.1944 43.2315 19.8333C42.3889 17.1111 38.8241 14.8426 35.1945 14.8426Z" fill="#FF7517" stroke="#292929" stroke-miterlimit="10"/>
<path d="M34.7407 26.8333C34.6111 26.8333 32.4722 27.0278 31.1759 28.713C30.3982 29.75 30.463 30.7222 30.2037 32.0185C29.4259 36.4259 26.5741 37.1389 26.963 39.2778C27.4167 41.7407 31.6945 43.2315 34.9352 43.2963C38.3056 43.2963 42.713 41.7407 43.1667 39.2778C43.5556 37.1389 40.6389 36.3611 39.7315 31.8889C39.4722 30.3981 39.537 29.4907 38.6945 28.4537C37.787 27.287 36.1667 26.7685 34.7407 26.8333Z" fill="#FF7517" stroke="#292929" stroke-miterlimit="10"/>
<path d="M29.2963 24.4352C29.7259 24.4352 30.0741 24.087 30.0741 23.6574C30.0741 23.2279 29.7259 22.8796 29.2963 22.8796C28.8667 22.8796 28.5185 23.2279 28.5185 23.6574C28.5185 24.087 28.8667 24.4352 29.2963 24.4352Z" fill="#2C2727" stroke="#2C2727" stroke-miterlimit="10" stroke-linecap="round"/>
<path d="M40.7037 24.4352C41.1333 24.4352 41.4815 24.087 41.4815 23.6574C41.4815 23.2279 41.1333 22.8796 40.7037 22.8796C40.2742 22.8796 39.9259 23.2279 39.9259 23.6574C39.9259 24.087 40.2742 24.4352 40.7037 24.4352Z" fill="#2C2727" stroke="#2C2727" stroke-miterlimit="10" stroke-linecap="round"/>
<path d="M32.5698 33.0555H34.0605V30.4629H32.5698V33.0555Z" fill="#2C2727"/>
<path d="M36.0061 33.0555H37.4969V30.4629H36.0061V33.0555Z" fill="#2C2727"/>
</svg>
