<svg width="42" height="42" viewBox="0 0 42 42" fill="none" xmlns="http://www.w3.org/2000/svg">
<g clip-path="url(#clip0_31_319)">
<path d="M15.3538 3.76355C8.96017 3.76355 3.75879 8.96456 3.75879 15.3579C3.75879 18.4552 4.96469 21.3671 7.15423 23.557C9.34415 25.747 12.256 26.9531 15.3537 26.9531C18.4501 26.9531 21.3617 25.7472 23.5519 23.557C25.7425 21.3664 26.9487 18.4549 26.9487 15.3582C26.9488 8.96493 21.7474 3.76355 15.3538 3.76355ZM22.5203 22.5247C20.6057 24.439 18.0607 25.4937 15.3538 25.4937C12.6459 25.4937 10.1002 24.439 8.18633 22.5254C6.27244 20.6111 5.21839 18.0661 5.21839 15.3582C5.21839 9.76994 9.76556 5.22343 15.3539 5.22343C20.9425 5.22343 25.4893 9.76994 25.4893 15.3585C25.4893 18.0651 24.4351 20.6105 22.5203 22.5247Z" fill="#F6F4F4"/>
<path d="M42.6826 35.8267L33.0824 26.2279L31.5 27.8101L29.2214 25.5325C33.8124 19.1595 33.1339 10.3297 27.5276 4.72355C24.4812 1.67755 20.4308 0 16.1229 0C16.1226 0 16.1232 0 16.1226 0C11.8153 0 7.76454 1.67755 4.71929 4.72315C-1.56919 11.0111 -1.56919 21.2416 4.71929 27.5285C10.3252 33.135 19.1564 33.8133 25.5308 29.2227L27.8098 31.5002L26.2267 33.0838L35.8266 42.682C36.7718 43.627 38.0129 44.1 39.2545 44.1C40.4956 44.0993 41.7378 43.627 42.6826 42.682C43.5981 41.7669 44.1025 40.5498 44.1029 39.2546C44.1029 37.9599 43.5985 36.7421 42.6826 35.8267ZM41.5995 41.5983C40.3062 42.8908 38.2027 42.8908 36.9101 41.5983L28.3937 33.0839L30.7378 30.7389L29.654 29.6553L28.8927 30.4167L25.6621 27.1875L25.128 27.6078C19.3307 32.164 11.0227 31.6645 5.80296 26.4452C0.112195 20.7555 0.112195 11.497 5.80296 5.80676C8.55954 3.05029 12.2247 1.53248 16.1232 1.53248C20.0217 1.53248 23.6872 3.05069 26.4437 5.80706C31.6638 11.0267 32.1634 19.3338 27.6062 25.1303L27.1862 25.6642L31.5006 29.9773L33.083 28.3952L41.5994 36.9096C42.2255 37.5363 42.5708 38.3682 42.5708 39.2543C42.5705 40.1397 42.2256 40.9724 41.5995 41.5983Z" fill="#F6F4F4"/>
<path d="M37.2119 37.5537L35.153 35.4941L34.1206 36.5262L36.1802 38.5864C36.6128 39.0184 37.1175 39.0829 37.3799 39.0829C37.6426 39.0829 38.1475 39.0184 38.5809 38.585L37.5489 37.553C37.4561 37.6461 37.3037 37.6455 37.2119 37.5537Z" fill="#F6F4F4"/>
<path d="M9.56536 9.57008C8.01701 11.1188 7.16431 13.1744 7.16431 15.3588H8.62381C8.62381 13.5642 9.32468 11.8751 10.5978 10.6024C11.8704 9.32968 13.5589 8.62882 15.3531 8.62882H15.3538V7.16931C15.3538 7.16931 15.3535 7.16931 15.3531 7.16931C13.1687 7.16941 11.1134 8.02202 9.56536 9.57008Z" fill="#F6F4F4"/>
</g>
<defs>
<clipPath id="clip0_31_319">
<rect width="42" height="42" fill="white"/>
</clipPath>
</defs>
</svg>
